<svg width="16" height="16" viewBox="0 0 16 16" fill="none" xmlns="http://www.w3.org/2000/svg">
<path d="M10 2H6C5.60218 2 5.22064 2.15804 4.93934 2.43934C4.65804 2.72064 4.5 3.10218 4.5 3.5V12.5C4.5 12.8978 4.65804 13.2794 4.93934 13.5607C5.22064 13.842 5.60218 14 6 14H10C10.3978 14 10.7794 13.842 11.0607 13.5607C11.342 13.2794 11.5 12.8978 11.5 12.5V3.5C11.5 3.10218 11.342 2.72064 11.0607 2.43934C10.7794 2.15804 10.3978 2 10 2ZM10.5 12.5C10.5 12.6326 10.4473 12.7598 10.3536 12.8536C10.2598 12.9473 10.1326 13 10 13H6C5.86739 13 5.74021 12.9473 5.64645 12.8536C5.55268 12.7598 5.5 12.6326 5.5 12.5V3.5C5.5 3.36739 5.55268 3.24021 5.64645 3.14645C5.74021 3.05268 5.86739 3 6 3H10C10.1326 3 10.2598 3.05268 10.3536 3.14645C10.4473 3.24021 10.5 3.36739 10.5 3.5V12.5ZM13.5 5.5V10.5C13.5 10.6326 13.4473 10.7598 13.3536 10.8536C13.2598 10.9473 13.1326 11 13 11C12.8674 11 12.7402 10.9473 12.6464 10.8536C12.5527 10.7598 12.5 10.6326 12.5 10.5V5.5C12.5 5.36739 12.5527 5.24021 12.6464 5.14645C12.7402 5.05268 12.8674 5 13 5C13.1326 5 13.2598 5.05268 13.3536 5.14645C13.4473 5.24021 13.5 5.36739 13.5 5.5ZM15.5 6.5V9.5C15.5 9.63261 15.4473 9.75979 15.3536 9.85355C15.2598 9.94732 15.1326 10 15 10C14.8674 10 14.7402 9.94732 14.6464 9.85355C14.5527 9.75979 14.5 9.63261 14.5 9.5V6.5C14.5 6.36739 14.5527 6.24021 14.6464 6.14645C14.7402 6.05268 14.8674 6 15 6C15.1326 6 15.2598 6.05268 15.3536 6.14645C15.4473 6.24021 15.5 6.36739 15.5 6.5ZM3.5 5.5V10.5C3.5 10.6326 3.44732 10.7598 3.35355 10.8536C3.25979 10.9473 3.13261 11 3 11C2.86739 11 2.74021 10.9473 2.64645 10.8536C2.55268 10.7598 2.5 10.6326 2.5 10.5V5.5C2.5 5.36739 2.55268 5.24021 2.64645 5.14645C2.74021 5.05268 2.86739 5 3 5C3.13261 5 3.25979 5.05268 3.35355 5.14645C3.44732 5.24021 3.5 5.36739 3.5 5.5ZM1.5 6.5V9.5C1.5 9.63261 1.44732 9.75979 1.35355 9.85355C1.25979 9.94732 1.13261 10 1 10C0.867392 10 0.740215 9.94732 0.646447 9.85355C0.552678 9.75979 0.5 9.63261 0.5 9.5V6.5C0.5 6.36739 0.552678 6.24021 0.646447 6.14645C0.740215 6.05268 0.867392 6 1 6C1.13261 6 1.25979 6.05268 1.35355 6.14645C1.44732 6.24021 1.5 6.36739 1.5 6.5Z" fill="#2D1F3A"/>
</svg>
