<svg width="16" height="16" viewBox="0 0 16 16" fill="none" xmlns="http://www.w3.org/2000/svg">
<path d="M7.33334 11.3333H8.66667V7.33331H7.33334V11.3333ZM8.00001 5.99998C8.18889 5.99998 8.34734 5.93598 8.47534 5.80798C8.60289 5.68042 8.66667 5.5222 8.66667 5.33331C8.66667 5.14442 8.60289 4.98598 8.47534 4.85798C8.34734 4.73042 8.18889 4.66665 8.00001 4.66665C7.81112 4.66665 7.65289 4.73042 7.52534 4.85798C7.39734 4.98598 7.33334 5.14442 7.33334 5.33331C7.33334 5.5222 7.39734 5.68042 7.52534 5.80798C7.65289 5.93598 7.81112 5.99998 8.00001 5.99998ZM8.00001 14.6666C6.45556 14.2778 5.18067 13.3915 4.17534 12.008C3.16956 10.6249 2.66667 9.08887 2.66667 7.39998V3.33331L8.00001 1.33331L13.3333 3.33331V7.39998C13.3333 9.08887 12.8307 10.6249 11.8253 12.008C10.8196 13.3915 9.54445 14.2778 8.00001 14.6666Z" fill="#2D1F3A"/>
</svg>
