<svg width="300" height="300" viewBox="0 0 300 300" fill="none" xmlns="http://www.w3.org/2000/svg">
<path d="M208.872 76.863V80.844C229.221 98.172 240.873 123.333 240.873 150.006C240.873 176.679 229.221 201.834 208.872 219.162V223.149C230.892 205.368 243.933 178.293 243.933 150.009C243.933 121.725 230.892 94.641 208.872 76.869V76.863ZM91.131 80.844V76.863C69.111 94.638 56.07 121.713 56.07 150.003C56.07 178.293 69.111 205.365 91.131 223.143V219.156C70.782 201.828 59.13 176.673 59.13 150C59.13 123.327 70.782 98.166 91.131 80.838V80.844Z" fill="white"/>
<path d="M107.442 111.717C107.472 114.225 106.815 116.826 105.405 118.863L108.006 121.434L105.093 124.347L102.429 121.716C100.767 122.781 98.667 123.345 96.192 123.345C88.389 123.345 84.942 117.672 84.909 111.969C84.879 106.233 88.482 100.497 96.192 100.497C103.902 100.497 107.349 106.077 107.442 111.717ZM88.983 112.062C89.046 115.665 91.428 119.52 96.192 119.52C100.956 119.52 103.527 115.353 103.368 111.591C103.212 108.051 101.361 104.226 96.192 104.226C91.023 104.226 88.92 108.363 88.983 112.062Z" fill="white"/>
<path d="M129.693 101.064V113.631C129.693 120.12 125.712 123.441 120.198 123.441C114.684 123.441 110.451 120.243 110.451 113.631V101.064H114.558V113.631C114.558 117.579 116.814 119.679 120.231 119.679C123.648 119.679 125.589 117.39 125.589 113.631V101.064H129.696H129.693Z" fill="white"/>
<path d="M155.298 112.125C155.235 117.798 151.755 123.471 144.048 123.471C136.341 123.471 132.765 117.924 132.765 112.158C132.765 106.392 136.464 100.593 144.048 100.593C151.632 100.593 155.361 106.392 155.298 112.125ZM136.839 112.218C136.932 115.821 138.876 119.676 144.048 119.676C149.22 119.676 151.161 115.791 151.224 112.185C151.287 108.486 149.217 104.349 144.048 104.349C138.879 104.349 136.746 108.516 136.839 112.215V112.218Z" fill="white"/>
<path d="M162.726 104.793H155.769V101.031H173.82V104.793H166.863V122.97H162.726V104.793Z" fill="white"/>
<path d="M192.687 122.97H176.265V101.031H192.687V105.042H180.369V110.088H192.246V113.943H180.369V118.896H192.687V122.97Z" fill="white"/>
<path d="M210.081 106.329C209.328 105.075 207.261 103.884 204.879 103.884C201.807 103.884 200.334 105.168 200.334 106.797C200.334 108.708 202.59 109.242 205.224 109.554C209.799 110.118 214.062 111.309 214.062 116.544C214.062 121.434 209.736 123.534 204.849 123.534C200.367 123.534 196.92 122.154 195.291 118.143L198.738 116.358C199.71 118.77 202.248 119.838 204.912 119.838C207.576 119.838 209.958 118.929 209.958 116.547C209.958 114.477 207.795 113.631 204.882 113.319C200.4 112.785 196.263 111.594 196.263 106.674C196.263 102.162 200.712 100.311 204.756 100.281C208.173 100.281 211.713 101.253 213.375 104.637L210.084 106.329H210.081Z" fill="white"/>
<path d="M157.602 154.185C157.602 155.469 158.166 156.567 159.576 156.567V160.674C157.947 160.674 156.129 160.299 155.439 157.791C153.996 160.143 151.491 160.863 149.172 160.863C144.378 160.863 140.49 159.327 140.46 153.906C140.46 152.058 141.807 150.021 143.844 149.331C141.87 148.704 140.898 146.604 140.898 144.882C140.928 140.211 145.347 138.3 149.265 138.3C153.183 138.3 157.257 139.773 157.287 144.507H153.369C153.369 142.5 151.395 141.813 149.169 141.813C145.941 141.813 144.876 143.601 144.906 144.885C144.906 147.111 147.663 147.738 149.136 147.738H159.417V150.999H157.599V154.197L157.602 154.185ZM144.534 153.933C144.534 156.252 146.823 157.161 149.109 157.161C150.582 157.161 153.684 156.378 153.684 154.152V150.987H148.92C145.881 150.987 144.531 152.616 144.531 153.933H144.534Z" fill="white"/>
<path d="M103.071 181.545C102.318 180.291 100.251 179.1 97.869 179.1C94.797 179.1 93.324 180.384 93.324 182.016C93.324 183.927 95.58 184.461 98.214 184.773C102.789 185.337 107.052 186.528 107.052 191.763C107.052 196.653 102.726 198.753 97.839 198.753C93.357 198.753 89.91 197.373 88.281 193.362L91.728 191.577C92.7 193.989 95.238 195.057 97.902 195.057C100.566 195.057 102.948 194.148 102.948 191.766C102.948 189.699 100.785 188.85 97.872 188.538C93.39 188.004 89.253 186.813 89.253 181.893C89.253 177.381 93.702 175.53 97.746 175.5C101.163 175.5 104.703 176.472 106.365 179.856L103.074 181.548L103.071 181.545Z" fill="white"/>
<path d="M115.92 180.009H108.963V176.247H127.014V180.009H120.057V198.186H115.92V180.009Z" fill="white"/>
<path d="M145.098 194.049H133.626L131.745 198.186H127.263L137.103 176.247H141.615L151.455 198.186H146.943L145.095 194.049H145.098ZM139.362 180.855L135.288 190.194H143.436L139.362 180.855Z" fill="white"/>
<path d="M155.409 180.009H148.452V176.247H166.503V180.009H159.546V198.186H155.409V180.009Z" fill="white"/>
<path d="M188.91 176.28V188.847C188.91 195.333 184.929 198.657 179.415 198.657C173.901 198.657 169.668 195.459 169.668 188.847V176.28H173.775V188.847C173.775 192.795 176.031 194.895 179.448 194.895C182.865 194.895 184.806 192.606 184.806 188.847V176.28H188.913H188.91Z" fill="white"/>
<path d="M206.493 181.545C205.74 180.291 203.673 179.1 201.291 179.1C198.219 179.1 196.746 180.384 196.746 182.016C196.746 183.927 199.002 184.461 201.636 184.773C206.211 185.337 210.474 186.528 210.474 191.763C210.474 196.653 206.148 198.753 201.261 198.753C196.779 198.753 193.332 197.373 191.703 193.362L195.15 191.577C196.122 193.989 198.66 195.057 201.324 195.057C203.988 195.057 206.37 194.148 206.37 191.766C206.37 189.699 204.207 188.85 201.294 188.538C196.812 188.004 192.675 186.813 192.675 181.893C192.675 177.381 197.124 175.53 201.168 175.5C204.585 175.5 208.125 176.472 209.787 179.856L206.496 181.548L206.493 181.545Z" fill="white"/>
<path d="M195.915 230.406C195.369 228.624 195.366 228.618 196.917 227.901C198.21 227.301 199.122 226.392 199.464 224.865C199.11 224.73 198.777 224.589 198.432 224.475C196.014 223.686 194.562 221.898 194.499 219.624C194.439 217.422 195.873 215.307 197.964 214.515C200.187 213.672 202.8 214.302 204.282 216.126C206.067 218.325 206.163 220.848 205.419 223.434C204.279 227.397 199.803 230.64 195.912 230.409L195.915 230.406Z" fill="white"/>
<path d="M184.686 224.799C184.365 224.706 184.086 224.625 183.807 224.547C181.284 223.848 179.697 221.931 179.613 219.477C179.538 217.32 180.951 215.28 183.051 214.509C185.343 213.669 188.001 214.344 189.459 216.225C191.124 218.37 191.265 220.821 190.569 223.323C189.531 227.046 185.586 230.196 181.725 230.457C181.434 230.478 180.879 230.139 180.858 229.926C180.801 229.365 180.156 228.585 181.248 228.252C182.985 227.721 184.098 226.554 184.686 224.799Z" fill="white"/>
<path d="M105.693 65.373C106.063 66.581 105.712 67.439 104.64 67.947C103.185 68.637 102.504 69.48 102.222 70.998C102.51 71.106 102.81 71.229 103.119 71.328C105.507 72.09 106.965 73.815 107.07 76.017C107.178 78.249 105.921 80.319 103.929 81.189C101.748 82.143 99.084 81.66 97.53 79.938C95.592 77.79 95.406 75.237 96.132 72.594C97.254 68.505 101.214 65.535 105.693 65.376V65.373Z" fill="white"/>
<path d="M120.57 65.418C121.14 67.155 121.149 67.173 119.559 67.893C118.197 68.508 117.456 69.615 116.895 71.022C117.147 71.103 117.333 71.178 117.522 71.223C120.147 71.823 121.842 73.713 121.974 76.194C122.097 78.558 120.633 80.646 118.338 81.381C115.848 82.176 113.115 81.276 111.786 79.11C110.391 76.839 110.328 74.394 111.222 71.934C112.593 68.157 116.931 65.163 120.573 65.424L120.57 65.418Z" fill="white"/>
</svg>
