<svg width="16" height="16" viewBox="0 0 16 16" fill="none" xmlns="http://www.w3.org/2000/svg">
<path d="M14.6667 4.66667V10.6667C14.6667 11.4 14.0667 12 13.3333 12H3.99999L1.33333 14.6667V2.66667C1.33333 1.93333 1.93333 1.33333 2.66666 1.33333H9.39999C9.33333 1.53333 9.33333 1.8 9.33333 2C9.33333 3.86667 10.8 5.33333 12.6667 5.33333C13.4 5.33333 14.1333 5.06667 14.6667 4.66667ZM10.6667 2C10.6667 3.13333 11.5333 4 12.6667 4C13.8 4 14.6667 3.13333 14.6667 2C14.6667 0.866667 13.8 0 12.6667 0C11.5333 0 10.6667 0.866667 10.6667 2Z" fill="#2D1F3A"/>
</svg>
